# xmcd CD database file
#
# Track frame offsets:
#	150
#	14635
#	30932
#	45001
#	61925
#	85341
#
# Disc length: 1377 seconds
#
# Revision: 0
# Processed by: cddbd v1.5.1PL0 Copyright (c) Steve Scherf et al.
# Submitted via: CDex 1.51
#
DISCID=39055f06
DTITLE=Half Stoned Cowboys - On A Mission
DYEAR=2004
DGENRE=Country
TTITLE0=Nowhere Road
TTITLE1=Put Another Log On The Fire
TTITLE2=Johnny Come Lately
TTITLE3=More Pretty Girls Than One
TTITLE4=Peace In The Valley
TTITLE5=Plastic Jesus
EXTD=YEAR: 2004
EXTT0=
EXTT1=
EXTT2=
EXTT3=
EXTT4=
EXTT5=
PLAYORDER=
